<?xml version="1.0" encoding="UTF-8" standalone="no"?>
<!-- Created with Inkscape (http://www.inkscape.org/) -->

<svg
   xmlns:dc="http://purl.org/dc/elements/1.1/"
   xmlns:cc="http://creativecommons.org/ns#"
   xmlns:rdf="http://www.w3.org/1999/02/22-rdf-syntax-ns#"
   xmlns:svg="http://www.w3.org/2000/svg"
   xmlns="http://www.w3.org/2000/svg"
   xmlns:sodipodi="http://sodipodi.sourceforge.net/DTD/sodipodi-0.dtd"
   xmlns:inkscape="http://www.inkscape.org/namespaces/inkscape"
   id="svg3032"
   version="1.1"
   inkscape:version="0.48.4 r9939"
   width="535"
   height="762.5"
   xml:space="preserve"
   sodipodi:docname="ESI-Theory of Change-Edit1.svg"><metadata
     id="metadata3038"><rdf:RDF><cc:Work
         rdf:about=""><dc:format>image/svg+xml</dc:format><dc:type
           rdf:resource="http://purl.org/dc/dcmitype/StillImage" /><dc:title></dc:title></cc:Work></rdf:RDF></metadata><defs
     id="defs3036"><clipPath
       clipPathUnits="userSpaceOnUse"
       id="clipPath3048"><path
         d="M 0,0 428,0 428,610 0,610 0,0 z"
         id="path3050" /></clipPath></defs><sodipodi:namedview
     pagecolor="#ffffff"
     bordercolor="#666666"
     borderopacity="1"
     objecttolerance="10"
     gridtolerance="10"
     guidetolerance="10"
     inkscape:pageopacity="0"
     inkscape:pageshadow="2"
     inkscape:window-width="1070"
     inkscape:window-height="728"
     id="namedview3034"
     showgrid="false"
     inkscape:zoom="0.69508197"
     inkscape:cx="261.20758"
     inkscape:cy="360.80993"
     inkscape:window-x="141"
     inkscape:window-y="44"
     inkscape:window-maximized="0"
     inkscape:current-layer="g3040" /><g
     id="g3040"
     inkscape:groupmode="layer"
     inkscape:label="ESI-Theory of Change"
     transform="matrix(1.25,0,0,-1.25,0,762.5)"><g
       id="g5443"
       transform="matrix(0.95926866,0,0,0.95926866,5.8088064,-0.51412442)"><path
         inkscape:connector-curvature="0"
         id="path3052"
         style="fill:#ffffff;fill-opacity:1;fill-rule:nonzero;stroke:none"
         d="m 29.584906,580.77358 378.849024,0 0,-480.36812 -378.849024,0 0,480.36812 z" /><text
         style="font-size:14.17484379px;line-height:125%;fill:#008000;stroke:#52e918;stroke-width:1.02768993;stroke-opacity:1"
         sodipodi:linespacing="125%"
         y="-551.73407"
         x="52.577599"
         transform="scale(1,-1)"
         id="text3056"><tspan
           style="font-size:21.26226616px;font-variant:normal;font-weight:500;writing-mode:lr-tb;fill:#008000;fill-opacity:1;fill-rule:nonzero;stroke:#52e918;stroke-width:1.02768993;stroke-opacity:1;font-family:HelveticaNeue;-inkscape-font-specification:HelveticaNeue-Medium"
           x="52.577599 65.972816 78.177361 89.212479 94.3367 101.43828 114.04683 126.25134 144.74954 156.57137 168.77588 175.85623 187.67805 192.80225 198.71315 212.49112 219.57144 232.17998 239.66431 250.6994 257.77972 269.60156 274.72577 279.84995 284.97418 297.17868 309.7872 315.69812 321.60904 333.81357 344.84869 351.92902 357.05322 364.13358 376.3381 383.4184"
           y="-551.73407"
           sodipodi:role="line"
           id="tspan3058">Environmental Storytelling Institute</tspan></text>
<text
         style="font-size:11.946208px"
         y="-531.36755"
         x="50.926666"
         transform="scale(1.0221476,-0.97833228)"
         id="text3062"><tspan
           style="font-size:17.91931152px;font-variant:normal;font-weight:500;writing-mode:lr-tb;fill:#000000;fill-opacity:1;fill-rule:nonzero;stroke:none;font-family:HelveticaNeue;-inkscape-font-specification:HelveticaNeue-Medium"
           x="50.926666 61.55283 71.838516 81.801643 92.427788 98.735397 108.03551 113.01705 123.64321 129.28781 134.26938 147.20712 157.4928 167.45593 177.74162 188.36777"
           y="-531.36755"
           sodipodi:role="line"
           id="tspan3064">Theory of Change</tspan></text>
<g
         transform="matrix(0.97953695,0,0,0.9375481,3.2953286,11.644527)"
         id="g4959"><text
           id="text3068"
           transform="scale(1,-1)"
           x="49.751759"
           y="-518.23645"><tspan
             id="tspan3070"
             sodipodi:role="line"
             y="-518.23645"
             x="49.751759 59.607746 64.535751 67.909744 75.945755 84.247757 87.62175 95.657745 103.95975 107.85175 112.51375 120.81575 129.11775 136.90175 141.56375 149.59975 157.38376 162.31175 166.20375 170.86575 178.90175 183.57776 191.36176 199.14575 203.03775 211.33975 216.01578 224.31776 232.35378 240.90778 248.17377 252.06577 262.95776 270.99377 279.29575 283.18774 291.74176 300.04376 303.93576 310.15173 318.70575 326.74173 335.29575 338.66974 342.04373 349.82773"
             style="font-size:14px;font-variant:normal;font-weight:500;writing-mode:lr-tb;fill:#000000;fill-opacity:1;fill-rule:nonzero;stroke:none;font-family:HelveticaNeue;-inkscape-font-specification:HelveticaNeue-Medium">Bringing together three groups who do “public </tspan></text>
<text
           id="text3074"
           transform="scale(1,-1)"
           x="49.751759"
           y="-501.23648"><tspan
             id="tspan3076"
             sodipodi:role="line"
             y="-501.23648"
             x="49.751759 60.643757 68.945755 73.873764 81.391739 87.607758 91.499756 95.391754 105.24776 113.54976 120.81575 125.47775 133.26175 137.15375 141.04575 148.82976 156.61375 164.39775 172.18175 176.07375 179.96576 183.33975 191.37575 195.26776 203.82176 207.19576 211.35376 215.76376 223.54778 228.22377 236.00775 244.04378 248.70576 252.59776 263.48978 271.27377 278.53973 285.80576 289.69775 300.58975 303.96375 307.33774 310.71173 314.60373 322.63974 330.42374 337.68973 345.47372 349.36575 354.29373 357.66772 366.22174 374.77573 378.14975 385.93375"
             style="font-size:14px;font-variant:normal;font-weight:500;writing-mode:lr-tb;fill:#000000;fill-opacity:1;fill-rule:nonzero;stroke:none;font-family:HelveticaNeue;-inkscape-font-specification:HelveticaNeue-Medium">work” (Boyte, 2009) in different ways will have ripple </tspan></text>
<text
           id="text3080"
           transform="scale(1,-1)"
           x="49.751759"
           y="-484.23645"><tspan
             id="tspan3082"
             sodipodi:role="line"
             y="-484.23645"
             x="49.751759 57.535755 61.693745 66.103745 73.887741 81.671768 86.333755 93.599747 97.49176 102.15375 110.18976 114.86575 123.16776 131.20375 139.50575 147.54175 155.84375 163.87975 168.54175 172.43375 180.21776 183.59175 190.85776 194.23175 197.60576 201.49776 208.76375 217.06577 224.84976 228.22377 236.00775 240.66977 246.64777"
             style="font-size:14px;font-variant:normal;font-weight:500;writing-mode:lr-tb;fill:#000000;fill-opacity:1;fill-rule:nonzero;stroke:none;font-family:HelveticaNeue;-inkscape-font-specification:HelveticaNeue-Medium">effects throughout civil society.</tspan></text>
</g><g
         transform="translate(-174.62445,-30.979639)"
         id="g4720"><path
           d="m 333.10819,465.06782 c 16.49349,-10.30828 16.49349,-27.02144 0,-37.32972 -16.4933,-10.30847 -43.23436,-10.30847 -59.72767,0 -16.49349,10.30828 -16.49349,27.02144 0,37.32972 16.49331,10.30847 43.23437,10.30847 59.72767,0"
           style="fill:#caeeff;fill-opacity:1;fill-rule:nonzero;stroke:none"
           id="path3120"
           inkscape:connector-curvature="0" /><path
           inkscape:connector-curvature="0"
           id="path3124"
           style="fill:none;stroke:#728791;stroke-width:0.93119907;stroke-linecap:round;stroke-linejoin:round;stroke-miterlimit:10;stroke-opacity:1;stroke-dasharray:none"
           d="m 333.10819,465.06782 c 16.49349,-10.30828 16.49349,-27.02144 0,-37.32972 -16.4933,-10.30847 -43.23436,-10.30847 -59.72767,0 -16.49349,10.30828 -16.49349,27.02144 0,37.32972 16.49331,10.30847 43.23437,10.30847 59.72767,0" /><text
           id="text3128"
           transform="scale(1,-1)"
           x="278.30313"
           y="-442.67813"
           style="font-size:11.17438889px"><tspan
             id="tspan3130"
             sodipodi:role="line"
             y="-442.67813"
             x="278.30313 285.54413 291.54477 297.54544 304.17184 310.17249 319.70422 322.18494"
             style="font-size:11.17438889px;font-variant:normal;font-weight:normal;writing-mode:lr-tb;fill:#000000;fill-opacity:1;fill-rule:nonzero;stroke:none;font-family:HelveticaNeue;-inkscape-font-specification:HelveticaNeue">Academia</tspan></text>
</g><g
         transform="translate(120.98287,107.23352)"
         id="g4797"><path
           d="m 251.34366,119.96587 c 16.49349,-10.30834 16.49349,-27.021467 0,-37.329813 -16.4933,-10.3084 -43.23436,-10.3084 -59.72767,0 -16.49349,10.308346 -16.49349,27.021473 0,37.329813 16.49331,10.3084 43.23437,10.3084 59.72767,0"
           style="fill:#ffdcca;fill-opacity:0.8;fill-rule:nonzero;stroke:none"
           id="path3162"
           inkscape:connector-curvature="0" /><path
           inkscape:connector-curvature="0"
           id="path3166"
           style="fill:none;stroke:#917c72;stroke-width:0.93119907;stroke-linecap:round;stroke-linejoin:round;stroke-miterlimit:10;stroke-opacity:1;stroke-dasharray:none"
           d="m 251.34366,119.96583 c 16.49349,-10.30828 16.49349,-27.021446 0,-37.329727 -16.4933,-10.308467 -43.23436,-10.308467 -59.72767,0 -16.49349,10.308281 -16.49349,27.021447 0,37.329727 16.49331,10.30846 43.23437,10.30846 59.72767,0" /><text
           id="text3170"
           transform="scale(1,-1)"
           x="197.36548"
           y="-104.09457"
           style="font-size:11.17438889px"><tspan
             id="tspan3172"
             sodipodi:role="line"
             y="-104.09457"
             x="197.36548 207.09839 213.31134 219.52431 222.00502 228.00566 230.48639 237.11279 243.11343 245.59416"
             style="font-size:11.17438889px;font-variant:normal;font-weight:normal;writing-mode:lr-tb;fill:#000000;fill-opacity:1;fill-rule:nonzero;stroke:none;font-family:HelveticaNeue;-inkscape-font-specification:HelveticaNeue">Municipal </tspan></text>
<text
           id="text3176"
           transform="scale(1,-1)"
           x="202.53365"
           y="-91.057777"
           style="font-size:11.17438889px"><tspan
             id="tspan3178"
             y="-91.057777"
             x="202.53365"
             style="font-size:11.17438889px;font-variant:normal;font-weight:normal;writing-mode:lr-tb;fill:#000000;fill-opacity:1;fill-rule:nonzero;stroke:none;font-family:HelveticaNeue;-inkscape-font-specification:HelveticaNeue">o</tspan></text>
<text
           id="text3182"
           transform="scale(1,-1)"
           x="208.94774"
           y="-91.057777"
           style="font-size:11.17438889px"><tspan
             id="tspan3184"
             y="-91.057777"
             x="208.94774"
             style="font-size:11.17438889px;font-variant:normal;font-weight:normal;writing-mode:lr-tb;fill:#000000;fill-opacity:1;fill-rule:nonzero;stroke:none;font-family:HelveticaNeue;-inkscape-font-specification:HelveticaNeue">ﬃ</tspan></text>
<text
           id="text3188"
           transform="scale(1,-1)"
           x="217.87608"
           y="-91.057777"
           style="font-size:11.17438889px"><tspan
             id="tspan3190"
             sodipodi:role="line"
             y="-91.057777"
             x="217.87608 223.87672 226.35744 232.35809 234.83881"
             style="font-size:11.17438889px;font-variant:normal;font-weight:normal;writing-mode:lr-tb;fill:#000000;fill-opacity:1;fill-rule:nonzero;stroke:none;font-family:HelveticaNeue;-inkscape-font-specification:HelveticaNeue">cials</tspan></text>
</g><g
         transform="translate(-67.827975,36.429446)"
         id="g4738"><g
           id="g4654"
           transform="translate(240.8966,-137.53894)"><path
             inkscape:connector-curvature="0"
             id="path3192"
             style="fill:#eefdca;fill-opacity:0.8;fill-rule:nonzero;stroke:none"
             d="m 156.37893,462.01458 c 16.49349,-10.30829 16.49349,-27.02145 0,-37.32973 -16.49331,-10.30847 -43.23432,-10.30847 -59.727687,0 -16.493435,10.30828 -16.493435,27.02144 0,37.32973 16.493367,10.30846 43.234377,10.30846 59.727687,0" /><path
             d="m 156.37893,462.01458 c 16.49349,-10.30829 16.49349,-27.02145 0,-37.32973 -16.49331,-10.30847 -43.23437,-10.30847 -59.727677,0 -16.493492,10.30828 -16.493492,27.02144 0,37.32973 16.493307,10.30846 43.234367,10.30846 59.727677,0"
             style="fill:none;stroke:#878f72;stroke-width:0.93119907;stroke-linecap:round;stroke-linejoin:round;stroke-miterlimit:10;stroke-opacity:1;stroke-dasharray:none"
             id="path3196"
             inkscape:connector-curvature="0" /><text
             style="font-size:11.17438889px"
             y="-439.62488"
             x="94.645721"
             transform="scale(1,-1)"
             id="text3200"><tspan
               style="font-size:11.17438889px;font-variant:normal;font-weight:normal;writing-mode:lr-tb;fill:#000000;fill-opacity:1;fill-rule:nonzero;stroke:none;font-family:HelveticaNeue;-inkscape-font-specification:HelveticaNeue"
               x="94.645721 103.12709 109.12773 112.64767 118.64832 124.44782 130.44849 136.44913 143.07553 149.07619 152.79726"
               y="-439.62488"
               sodipodi:role="line"
               id="tspan3202">Gatekeepers</tspan></text>
</g></g><g
         transform="translate(-2.7207853,-85.646544)"
         id="g4857"><g
           id="g4678"
           transform="translate(12.660377,57.54717)"><path
             inkscape:connector-curvature="0"
             id="path3228"
             style="fill:#aaaaaa;fill-opacity:1;fill-rule:nonzero;stroke:none"
             d="m 271.16424,231.06849 c 18.18287,-18.18278 18.18287,-47.66286 0,-65.84564 -18.18278,-18.18288 -47.66287,-18.18288 -65.84565,0 -18.18287,18.18278 -18.18287,47.66286 0,65.84564 18.18278,18.18288 47.66287,18.18288 65.84565,0" /><path
             d="m 271.16424,231.06849 c 18.18287,-18.18278 18.18287,-47.66286 0,-65.84564 -18.18278,-18.18288 -47.66287,-18.18288 -65.84565,0 -18.18287,18.18278 -18.18287,47.66286 0,65.84564 18.18278,18.18288 47.66287,18.18288 65.84565,0"
             style="fill:none;stroke:#919091;stroke-width:0.93119907;stroke-linecap:round;stroke-linejoin:round;stroke-miterlimit:10;stroke-opacity:1;stroke-dasharray:none"
             id="path3232"
             inkscape:connector-curvature="0" /><text
             style="font-size:11.17438889px"
             y="-200.93927"
             x="205.07814"
             transform="scale(1,-1)"
             id="text3236"><tspan
               style="font-size:12.10558796px;font-variant:normal;font-weight:bold;writing-mode:lr-tb;fill:#ffffff;fill-opacity:1;fill-rule:nonzero;stroke:none;font-family:HelveticaNeue;-inkscape-font-specification:HelveticaNeue-Bold"
               x="205.07814 214.0484 221.4449 232.41257 243.38023 250.55885 257.73746 260.86072 265.12186 271.40469"
               y="-200.93927"
               sodipodi:role="line"
               id="tspan3238">Community </tspan></text>
<text
             style="font-size:11.17438889px"
             y="-186.04008"
             x="207.74742"
             transform="scale(1,-1)"
             id="text3242"><tspan
               style="font-size:12.10558796px;font-variant:normal;font-weight:bold;writing-mode:lr-tb;fill:#ffffff;fill-opacity:1;fill-rule:nonzero;stroke:none;font-family:HelveticaNeue;-inkscape-font-specification:HelveticaNeue-Bold"
               x="207.74742 216.03975 223.43628 229.73117 237.1277 244.07629 251.0249 255.28607 262.23468"
               y="-186.04008"
               sodipodi:role="line"
               id="tspan3244">Advocates</tspan></text>
</g></g><g
         transform="translate(-4.3484651,-87.274223)"
         id="g4851"><g
           id="g4616"
           transform="translate(32.276028,-16.457329)"><path
             inkscape:connector-curvature="0"
             id="path3216"
             style="fill:#aaaaaa;fill-opacity:1;fill-rule:nonzero;stroke:none"
             d="m 233.93384,413.8822 c 18.18288,-18.18278 18.18288,-47.66287 0,-65.84565 -18.18278,-18.18287 -47.66286,-18.18287 -65.84564,0 -18.18288,18.18278 -18.18288,47.66287 0,65.84565 18.18278,18.18287 47.66286,18.18287 65.84564,0" /><text
             style="font-size:11.17438889px"
             y="-376.30334"
             x="169.07648"
             transform="scale(1,-1)"
             id="text3224"><tspan
               style="font-size:12.10558796px;font-variant:normal;font-weight:bold;writing-mode:lr-tb;fill:#ffffff;fill-opacity:1;fill-rule:nonzero;stroke:none;font-family:HelveticaNeue;-inkscape-font-specification:HelveticaNeue-Bold"
               x="169.07648 175.80717 183.2037 190.38231 195.3093 202.4879 209.43651 212.55975 215.683 222.1837 226.44485"
               y="-376.30334"
               sodipodi:role="line"
               id="tspan3226">Journalists</tspan></text>
</g></g><g
         transform="translate(-9.2315044,-92.157263)"
         id="g4845"><path
           d="m 178.74327,458.42088 c 18.18287,-18.18278 18.18287,-47.66287 0,-65.84565 -18.18278,-18.18287 -47.66287,-18.18287 -65.84565,0 -18.18287,18.18278 -18.18287,47.66287 0,65.84565 18.18278,18.18287 47.66287,18.18287 65.84565,0"
           style="fill:#aaaaaa;fill-opacity:1;fill-rule:nonzero;stroke:none"
           id="path3108"
           inkscape:connector-curvature="0" /><path
           inkscape:connector-curvature="0"
           id="path3112"
           style="fill:none;stroke:#919091;stroke-width:0.93119907;stroke-linecap:round;stroke-linejoin:round;stroke-miterlimit:10;stroke-opacity:1;stroke-dasharray:none"
           d="m 178.74327,458.42088 c 18.18287,-18.18278 18.18287,-47.66287 0,-65.84565 -18.18278,-18.18287 -47.66287,-18.18287 -65.84565,0 -18.18287,18.18278 -18.18287,47.66287 0,65.84565 18.18278,18.18287 47.66287,18.18287 65.84565,0" /><text
           id="text3116"
           transform="scale(1,-1)"
           x="117.46915"
           y="-420.8421"
           style="font-size:11.17438889px"><tspan
             id="tspan3118"
             sodipodi:role="line"
             y="-420.8421"
             x="117.46915 125.32568 132.27429 135.39752 142.34612 149.52475 153.78592 156.90915 163.40988 167.67105"
             style="font-size:12.10558796px;font-variant:normal;font-weight:bold;writing-mode:lr-tb;fill:#ffffff;fill-opacity:1;fill-rule:nonzero;stroke:none;font-family:HelveticaNeue;-inkscape-font-specification:HelveticaNeue-Bold">Scientists</tspan></text>
</g><g
         transform="translate(-5.1623048,19.338796)"
         id="g4791"><path
           d="m 382.64274,143.24585 c 16.49349,-10.30835 16.49349,-27.02147 0,-37.32982 -16.49331,-10.308398 -43.23437,-10.308398 -59.72767,0 -16.4935,10.30835 -16.4935,27.02147 0,37.32982 16.4933,10.3084 43.23436,10.3084 59.72767,0"
           style="fill:#ffdcca;fill-opacity:0.8;fill-rule:nonzero;stroke:none"
           id="path3254"
           inkscape:connector-curvature="0" /><path
           inkscape:connector-curvature="0"
           id="path3258"
           style="fill:none;stroke:#917c72;stroke-width:0.93119907;stroke-linecap:round;stroke-linejoin:round;stroke-miterlimit:10;stroke-opacity:1;stroke-dasharray:none"
           d="m 382.64274,143.2458 c 16.49349,-10.30828 16.49349,-27.02144 0,-37.32972 -16.49331,-10.308466 -43.23437,-10.308466 -59.72767,0 -16.4935,10.30828 -16.4935,27.02144 0,37.32972 16.4933,10.30847 43.23436,10.30847 59.72767,0" /><text
           id="text3262"
           transform="scale(1,-1)"
           x="322.87625"
           y="-120.85615"
           style="font-size:11.17438889px"><tspan
             id="tspan3264"
             sodipodi:role="line"
             y="-120.85615"
             x="322.87625 329.0892 335.5033 341.50397 347.50461 349.98532 353.0918 359.7182 366.13229 368.61304 371.09375 377.09439"
             style="font-size:11.17438889px;font-variant:normal;font-weight:normal;writing-mode:lr-tb;fill:#000000;fill-opacity:1;fill-rule:nonzero;stroke:none;font-family:HelveticaNeue;-inkscape-font-specification:HelveticaNeue">Local policy</tspan></text>
</g><g
         transform="translate(-10.859183,-92.971103)"
         id="g4784"><g
           id="g4778"
           transform="translate(-8.0566038,0.5754717)"><path
             inkscape:connector-curvature="0"
             id="path3270"
             style="fill:#caeeff;fill-opacity:1;fill-rule:nonzero;stroke:none"
             d="m 269.66958,496.29163 c 16.49349,-10.30828 16.49349,-27.02144 0,-37.32972 -16.4933,-10.30847 -43.23436,-10.30847 -59.72767,0 -16.49349,10.30828 -16.49349,27.02144 0,37.32972 16.49331,10.30847 43.23437,10.30847 59.72767,0" /><path
             d="m 269.66958,496.29163 c 16.49349,-10.30828 16.49349,-27.02144 0,-37.32972 -16.4933,-10.30847 -43.23436,-10.30847 -59.72767,0 -16.49349,10.30828 -16.49349,27.02144 0,37.32972 16.49331,10.30847 43.23437,10.30847 59.72767,0"
             style="fill:none;stroke:#728791;stroke-width:0.93119907;stroke-linecap:round;stroke-linejoin:round;stroke-miterlimit:10;stroke-opacity:1;stroke-dasharray:none"
             id="path3274"
             inkscape:connector-curvature="0" /><text
             style="font-size:11.17438889px"
             y="-473.90198"
             x="217.3786"
             transform="scale(1,-1)"
             id="text3278"><tspan
               style="font-size:11.17438889px;font-variant:normal;font-weight:normal;writing-mode:lr-tb;fill:#000000;fill-opacity:1;fill-rule:nonzero;stroke:none;font-family:HelveticaNeue;-inkscape-font-specification:HelveticaNeue"
               sodipodi:role="line"
               id="tspan3280"
               x="217.3786"
               y="-473.90198">Industry</tspan></text>
</g></g><g
         transform="translate(-26.32214,52.706236)"
         id="g4757"><g
           id="g4660"
           transform="translate(275.89172,-108.2407)"><path
             inkscape:connector-curvature="0"
             id="path3286"
             style="fill:#eefdca;fill-opacity:0.8;fill-rule:nonzero;stroke:none"
             d="m 110.7502,355.59433 c 16.49346,-10.30828 16.49346,-27.02144 0,-37.32972 -16.493358,-10.30847 -43.234351,-10.30847 -59.727712,0 -16.493441,10.30828 -16.493441,27.02144 0,37.32972 16.493361,10.30847 43.234354,10.30847 59.727712,0" /><path
             d="m 110.75017,355.59433 c 16.49349,-10.30828 16.49349,-27.02144 0,-37.32972 -16.493309,-10.30847 -43.234368,-10.30847 -59.727682,0 -16.493436,10.30828 -16.493436,27.02144 0,37.32972 16.493314,10.30847 43.234373,10.30847 59.727682,0"
             style="fill:none;stroke:#878f72;stroke-width:0.93119907;stroke-linecap:round;stroke-linejoin:round;stroke-miterlimit:10;stroke-opacity:1;stroke-dasharray:none"
             id="path3290"
             inkscape:connector-curvature="0" /><text
             style="font-size:11.17438889px"
             y="-333.20468"
             x="50.045029"
             transform="scale(1,-1)"
             id="text3294"><tspan
               style="font-size:11.17438889px;font-variant:normal;font-weight:normal;writing-mode:lr-tb;fill:#000000;fill-opacity:1;fill-rule:nonzero;stroke:none;font-family:HelveticaNeue;-inkscape-font-specification:HelveticaNeue"
               x="50.045029 58.52639 64.940491 70.527679 76.528328 80.249405 86.462357 95.99411 101.99476 108.20773"
               y="-333.20468"
               sodipodi:role="line"
               id="tspan3296">Government</tspan></text>
</g></g><g
         transform="matrix(1.2518362,0,0,1.7028332,-21.883425,-307.61395)"
         id="g4674"><path
           d="m 151.22551,329.51234 c 22.90843,-16.68475 22.90843,-43.7363 0,-60.42105 -22.90818,-16.68506 -60.049841,-16.68506 -82.958012,0 -22.908432,16.68475 -22.908432,43.7363 0,60.42105 22.908171,16.68507 60.049832,16.68507 82.958012,0"
           style="fill:#eefdca;fill-opacity:1;fill-rule:nonzero;stroke:none"
           id="path3132"
           inkscape:connector-curvature="0" /><path
           inkscape:connector-curvature="0"
           id="path3136"
           style="fill:none;stroke:#878f72;stroke-width:1.39620984;stroke-linecap:round;stroke-linejoin:round;stroke-miterlimit:10;stroke-opacity:1;stroke-dasharray:none"
           d="m 151.22551,329.51234 c 22.90843,-16.68475 22.90843,-43.7363 0,-60.42105 -22.90818,-16.68506 -60.049841,-16.68506 -82.958012,0 -22.908432,16.68475 -22.908432,43.7363 0,60.42105 22.908171,16.68507 60.049832,16.68507 82.958012,0" /></g><text
         transform="scale(1,-1)"
         style="font-size:11.17438889px;fill:#6c5353"
         y="-198.75363"
         x="87.248405"
         id="text3116-3"><tspan
           y="-198.75363"
           x="87.248405"
           style="font-size:12.10558796px;font-variant:normal;font-weight:bold;writing-mode:lr-tb;fill:#6c5353;fill-opacity:1;fill-rule:nonzero;stroke:none;font-family:HelveticaNeue;-inkscape-font-specification:HelveticaNeue-Bold"
           sodipodi:role="line"
           id="tspan3118-4">Citizens</tspan></text>
<path
         inkscape:connector-curvature="0"
         id="path4866"
         d="m 125.86592,274.88452 3.25536,12.2076"
         style="fill:none;stroke:#000000;stroke-width:0.80000001px;stroke-linecap:butt;stroke-linejoin:miter;stroke-opacity:1" /><path
         inkscape:connector-curvature="0"
         id="path4868"
         d="m 176.32399,243.95861 13.83528,8.1384"
         style="fill:none;stroke:#000000;stroke-width:0.80000001px;stroke-linecap:butt;stroke-linejoin:miter;stroke-opacity:1" /><path
         inkscape:connector-curvature="0"
         id="path4870"
         d="m 186.90391,182.10678 14.64911,-2.44152"
         style="fill:none;stroke:#000000;stroke-width:0.80000001px;stroke-linecap:butt;stroke-linejoin:miter;stroke-opacity:1" /><path
         inkscape:connector-curvature="0"
         id="path4872"
         d="m 291.88925,151.99471 13.83528,-4.0692"
         style="fill:none;stroke:#000000;stroke-width:0.80000001px;stroke-linecap:butt;stroke-linejoin:miter;stroke-opacity:1" /><path
         inkscape:connector-curvature="0"
         id="path4874"
         d="m 289.44773,192.6867 13.02144,7.32456"
         style="fill:none;stroke:#000000;stroke-width:0.80000001px;stroke-linecap:butt;stroke-linejoin:miter;stroke-opacity:1" /><path
         inkscape:connector-curvature="0"
         id="path4876"
         d="m 275.61245,278.13988 11.39376,2.44152"
         style="fill:none;stroke:#000000;stroke-width:0.80000001px;stroke-linecap:butt;stroke-linejoin:miter;stroke-opacity:1" /><path
         inkscape:connector-curvature="0"
         id="path4878"
         d="m 251.64873,317.65569 11.71156,10.8977"
         style="fill:none;stroke:#000000;stroke-width:0.8891266px;stroke-linecap:butt;stroke-linejoin:miter;stroke-opacity:1" /><path
         inkscape:connector-curvature="0"
         id="path4882"
         d="m 173.88247,361.9654 11.39376,8.1384"
         style="fill:none;stroke:#000000;stroke-width:0.80000001px;stroke-linecap:butt;stroke-linejoin:miter;stroke-opacity:1" /><path
         inkscape:connector-curvature="0"
         id="path4884"
         d="m 132.37664,380.68371 -0.81384,8.1384"
         style="fill:none;stroke:#000000;stroke-width:0.80000001px;stroke-linecap:butt;stroke-linejoin:miter;stroke-opacity:1" /><rect
         transform="matrix(0.36343547,-0.93161937,0.99861402,-0.05263109,0,0)"
         y="334.06232"
         x="-267.11246"
         height="4.3187551"
         width="15.038718"
         id="rect5165-4"
         style="fill:#008000;stroke:#52e918;stroke-opacity:1" /><rect
         transform="matrix(0.8975687,-0.44087461,0.7106934,0.70350188,0,0)"
         y="373.1485"
         x="-100.47146"
         height="4.1091709"
         width="13.888002"
         id="rect5165-4-0"
         style="fill:#008000;stroke:#52e918;stroke-width:0.93737274;stroke-opacity:1" /></g></g></svg>